<?xml version="1.0" encoding="UTF-8" standalone="no"?>
<!DOCTYPE svg PUBLIC "-//W3C//DTD SVG 1.1//EN" "http://www.w3.org/Graphics/SVG/1.1/DTD/svg11.dtd">
<svg width="100%" height="100%" viewBox="0 0 1328 1158" version="1.1" xmlns="http://www.w3.org/2000/svg" xmlns:xlink="http://www.w3.org/1999/xlink" xml:space="preserve" xmlns:serif="http://www.serif.com/" style="fill-rule:evenodd;clip-rule:evenodd;stroke-linejoin:round;stroke-miterlimit:2;">
    <g transform="matrix(0.331915,0,0,1,3.6966,-258.654)">
        <path d="M3908.94,385.856L3635.61,258.654L3635.61,341.086L148.94,341.086L148.94,430.626L3635.61,430.626L3635.61,508.101L3908.94,385.856Z" style="fill:rgb(222,245,252);fill-rule:nonzero;"/>
    </g>
    <g transform="matrix(0.340408,0,0,1,-20.6995,-623.654)">
        <path d="M3900.88,1781.61L120.118,1781.61C87.362,1781.61 60.808,1755.05 60.808,1722.3C60.808,1689.54 87.362,1662.99 120.118,1662.99L3900.88,1662.99C3933.63,1662.99 3960.19,1689.54 3960.19,1722.3C3960.19,1755.05 3933.63,1781.61 3900.88,1781.61Z" style="fill:rgb(137,205,247);fill-rule:nonzero;"/>
    </g>
    <g transform="matrix(1,0,0,1,-1451.81,-616.654)">
        <path d="M1824.32,1732.95L1564.53,1732.95C1539.91,1732.95 1520.17,1708.67 1520.9,1679.3L1539.21,950.021C1539.21,903.479 1570.82,865.75 1609.8,865.75L1772.38,865.75C1811.37,865.75 1842.98,903.479 1842.98,950.021L1867.92,1678.73C1868.93,1708.31 1849.12,1732.95 1824.32,1732.95Z" style="fill:rgb(34,35,35);fill-rule:nonzero;"/>
    </g>
    <g transform="matrix(1,0,0,1,-1451.81,-616.654)">
        <path d="M1814.22,898.228L1775.76,898.228L1775.76,725.969C1775.76,717.49 1782.63,710.617 1791.11,710.617L1798.86,710.617C1807.34,710.617 1814.22,717.49 1814.22,725.969L1814.22,898.228Z" style="fill:rgb(83,85,89);fill-rule:nonzero;"/>
    </g>
    <g transform="matrix(1,0,0,1,-1451.81,-616.654)">
        <path d="M1849.42,907.449C1844.75,900.99 1841.31,896.039 1839.89,888.769C1836.11,869.448 1836.18,849.823 1840.1,830.513C1840.3,829.552 1840.5,828.552 1840.01,827.631C1838.79,825.301 1834.15,824.701 1830.31,824.484C1819.75,823.887 1770.22,823.887 1759.67,824.484C1755.82,824.701 1751.18,825.301 1749.96,827.631C1749.47,828.552 1749.67,829.552 1749.87,830.513C1753.79,849.823 1753.86,869.448 1750.09,888.769C1748.67,896.039 1745.22,900.99 1740.55,907.449C1736.41,913.183 1734.79,915.422 1746.93,917.472C1750.63,918.098 1775.61,918.378 1794.99,918.083C1814.36,918.378 1839.34,918.098 1843.04,917.472C1855.18,915.422 1853.56,913.183 1849.42,907.449Z" style="fill:rgb(57,58,58);fill-rule:nonzero;"/>
    </g>
    <g transform="matrix(1,0,0,1,-1451.81,-616.654)">
        <path d="M1778.72,917.472C1766.58,915.422 1768.2,913.183 1772.34,907.449C1777.01,900.99 1780.45,896.039 1781.88,888.769C1785.65,869.448 1785.58,849.823 1781.66,830.513C1781.46,829.552 1781.26,828.552 1781.75,827.631C1782.97,825.301 1787.61,824.701 1791.45,824.484C1794.77,824.297 1801.91,824.169 1810.49,824.099C1791.73,823.945 1766.13,824.075 1758.89,824.484C1755.04,824.701 1750.4,825.301 1749.18,827.631C1748.69,828.552 1748.89,829.552 1749.09,830.513C1753.01,849.823 1753.08,869.448 1749.31,888.769C1747.89,896.039 1744.44,900.99 1739.77,907.449C1735.63,913.183 1734.01,915.422 1746.15,917.472C1749.84,918.097 1774.76,918.378 1794.12,918.085C1786.32,917.964 1780.38,917.754 1778.72,917.472Z" style="fill:rgb(34,35,35);fill-rule:nonzero;"/>
    </g>
    <g transform="matrix(1,0,0,1,-1451.81,-616.654)">
        <path d="M1826.78,918.083C1821.58,918.163 1815.98,918.2 1810.49,918.201C1816.28,918.201 1821.94,918.161 1826.86,918.085L1826.78,918.083Z" style="fill:rgb(34,35,35);fill-rule:nonzero;"/>
    </g>
    <g transform="matrix(1,0,0,1,-1451.81,-616.654)">
        <path d="M1876.01,1732.95L1616.21,1732.95C1591.6,1732.95 1571.86,1708.67 1572.59,1679.3L1590.9,950.021C1590.9,903.479 1622.51,865.75 1661.49,865.75L1824.07,865.75C1863.06,865.75 1894.66,903.479 1894.66,950.021L1919.61,1678.73C1920.62,1708.31 1900.81,1732.95 1876.01,1732.95Z" style="fill:rgb(57,58,58);fill-rule:nonzero;"/>
    </g>
    <g transform="matrix(1,0,0,1,-1451.81,-616.654)">
        <path d="M1614.7,1111.24L1614.7,1226.42C1614.7,1235.82 1622.33,1243.45 1631.73,1243.45L1860.49,1243.45C1869.89,1243.45 1877.52,1235.82 1877.52,1226.42L1877.52,1110.78C1877.52,1105.46 1875.04,1100.46 1870.81,1097.23C1854.91,1085.12 1811.3,1057.32 1745.87,1057.32C1685.15,1057.32 1639.02,1085.25 1621.92,1097.32C1617.4,1100.51 1614.7,1105.7 1614.7,1111.24Z" style="fill:rgb(83,84,84);fill-rule:nonzero;"/>
    </g>
    <g transform="matrix(1,0,0,1,-1451.81,-616.654)">
        <path d="M1828.99,1228.44L1669.32,1228.44C1649.95,1228.44 1634.25,1212.74 1634.25,1193.38L1634.25,1143.83C1634.25,1124.46 1649.95,1108.76 1669.32,1108.76L1828.99,1108.76C1848.36,1108.76 1864.06,1124.46 1864.06,1143.83L1864.06,1193.38C1864.06,1212.74 1848.36,1228.44 1828.99,1228.44Z" style="fill:rgb(104,153,165);fill-rule:nonzero;"/>
    </g>
    <g transform="matrix(1,0,0,1,-1451.81,-616.654)">
        <path d="M1841.78,1111.18C1846.69,1119.42 1849.74,1130.82 1849.74,1143.42L1849.74,1172.02C1849.74,1197.17 1837.65,1217.56 1822.73,1217.56L1646.93,1217.56C1646.46,1217.56 1644.94,1217.21 1643.2,1216.77C1649.62,1223.93 1658.94,1228.44 1669.32,1228.44L1828.99,1228.44C1848.36,1228.44 1864.06,1212.74 1864.06,1193.38L1864.06,1143.83C1864.06,1128.98 1854.82,1116.29 1841.78,1111.18Z" style="fill:rgb(95,140,147);fill-rule:nonzero;"/>
    </g>
    <g transform="matrix(1,0,0,1,-1451.81,-616.654)">
        <path d="M1671.21,1487.54L1647.83,1487.54C1635.81,1487.54 1626.07,1477.8 1626.07,1465.78L1626.07,1461.65C1626.07,1449.63 1635.81,1439.89 1647.83,1439.89L1671.21,1439.89C1683.23,1439.89 1692.97,1449.63 1692.97,1461.65L1692.97,1465.78C1692.97,1477.8 1683.23,1487.54 1671.21,1487.54Z" style="fill:rgb(81,91,94);fill-rule:nonzero;"/>
    </g>
    <g transform="matrix(1,0,0,1,-1451.81,-616.654)">
        <path d="M1672.04,1487.54L1656.22,1487.54C1644.66,1487.54 1635.28,1478.17 1635.28,1466.61L1635.28,1460.83C1635.28,1449.26 1644.66,1439.89 1656.22,1439.89L1672.04,1439.89C1683.6,1439.89 1692.97,1449.26 1692.97,1460.83L1692.97,1466.61C1692.97,1478.17 1683.6,1487.54 1672.04,1487.54Z" style="fill:rgb(97,119,127);fill-rule:nonzero;"/>
    </g>
    <g transform="matrix(1,0,0,1,-1451.81,-616.654)">
        <path d="M1749.28,1487.54L1725.9,1487.54C1713.88,1487.54 1704.14,1477.8 1704.14,1465.78L1704.14,1461.65C1704.14,1449.63 1713.88,1439.89 1725.9,1439.89L1749.28,1439.89C1761.3,1439.89 1771.04,1449.63 1771.04,1461.65L1771.04,1465.78C1771.04,1477.8 1761.3,1487.54 1749.28,1487.54Z" style="fill:rgb(81,91,94);fill-rule:nonzero;"/>
    </g>
    <g transform="matrix(1,0,0,1,-1451.81,-616.654)">
        <path d="M1750.11,1487.54L1734.29,1487.54C1722.72,1487.54 1713.35,1478.17 1713.35,1466.61L1713.35,1460.83C1713.35,1449.26 1722.72,1439.89 1734.29,1439.89L1750.11,1439.89C1761.67,1439.89 1771.04,1449.26 1771.04,1460.83L1771.04,1466.61C1771.04,1478.17 1761.67,1487.54 1750.11,1487.54Z" style="fill:rgb(97,119,127);fill-rule:nonzero;"/>
    </g>
    <g transform="matrix(1,0,0,1,-1451.81,-616.654)">
        <path d="M1830.86,1487.54L1807.48,1487.54C1795.46,1487.54 1785.72,1477.8 1785.72,1465.78L1785.72,1461.65C1785.72,1449.63 1795.46,1439.89 1807.48,1439.89L1830.86,1439.89C1842.88,1439.89 1852.62,1449.63 1852.62,1461.65L1852.62,1465.78C1852.62,1477.8 1842.88,1487.54 1830.86,1487.54Z" style="fill:rgb(81,91,94);fill-rule:nonzero;"/>
    </g>
    <g transform="matrix(1,0,0,1,-1451.81,-616.654)">
        <path d="M1831.69,1487.54L1815.87,1487.54C1804.3,1487.54 1794.93,1478.17 1794.93,1466.61L1794.93,1460.83C1794.93,1449.26 1804.3,1439.89 1815.87,1439.89L1831.69,1439.89C1843.25,1439.89 1852.62,1449.26 1852.62,1460.83L1852.62,1466.61C1852.62,1478.17 1843.25,1487.54 1831.69,1487.54Z" style="fill:rgb(97,119,127);fill-rule:nonzero;"/>
    </g>
    <g transform="matrix(1,0,0,1,-1451.81,-616.654)">
        <path d="M1675.43,1320.33L1652.05,1320.33C1640.03,1320.33 1630.29,1310.59 1630.29,1298.57L1630.29,1294.44C1630.29,1282.42 1640.03,1272.68 1652.05,1272.68L1675.43,1272.68C1687.45,1272.68 1697.19,1282.42 1697.19,1294.44L1697.19,1298.57C1697.19,1310.59 1687.45,1320.33 1675.43,1320.33Z" style="fill:rgb(81,91,94);fill-rule:nonzero;"/>
    </g>
    <g transform="matrix(1,0,0,1,-1451.81,-616.654)">
        <path d="M1676.26,1320.33L1660.44,1320.33C1648.88,1320.33 1639.5,1310.96 1639.5,1299.39L1639.5,1293.61C1639.5,1282.05 1648.88,1272.68 1660.44,1272.68L1676.26,1272.68C1687.82,1272.68 1697.19,1282.05 1697.19,1293.61L1697.19,1299.39C1697.19,1310.96 1687.82,1320.33 1676.26,1320.33Z" style="fill:rgb(97,119,127);fill-rule:nonzero;"/>
    </g>
    <g transform="matrix(1,0,0,1,-1451.81,-616.654)">
        <path d="M1753.5,1320.33L1730.12,1320.33C1718.1,1320.33 1708.36,1310.59 1708.36,1298.57L1708.36,1294.44C1708.36,1282.42 1718.1,1272.68 1730.12,1272.68L1753.5,1272.68C1765.52,1272.68 1775.26,1282.42 1775.26,1294.44L1775.26,1298.57C1775.26,1310.59 1765.52,1320.33 1753.5,1320.33Z" style="fill:rgb(81,91,94);fill-rule:nonzero;"/>
    </g>
    <g transform="matrix(1,0,0,1,-1451.81,-616.654)">
        <path d="M1754.33,1320.33L1738.51,1320.33C1726.94,1320.33 1717.57,1310.96 1717.57,1299.39L1717.57,1293.61C1717.57,1282.05 1726.94,1272.68 1738.51,1272.68L1754.33,1272.68C1765.89,1272.68 1775.26,1282.05 1775.26,1293.61L1775.26,1299.39C1775.26,1310.96 1765.89,1320.33 1754.33,1320.33Z" style="fill:rgb(97,119,127);fill-rule:nonzero;"/>
    </g>
    <g transform="matrix(1,0,0,1,-1451.81,-616.654)">
        <path d="M1835.08,1320.33L1811.7,1320.33C1799.68,1320.33 1789.94,1310.59 1789.94,1298.57L1789.94,1294.44C1789.94,1282.42 1799.68,1272.68 1811.7,1272.68L1835.08,1272.68C1847.1,1272.68 1856.84,1282.42 1856.84,1294.44L1856.84,1298.57C1856.84,1310.59 1847.1,1320.33 1835.08,1320.33Z" style="fill:rgb(81,91,94);fill-rule:nonzero;"/>
    </g>
    <g transform="matrix(1,0,0,1,-1451.81,-616.654)">
        <path d="M1835.91,1320.33L1820.09,1320.33C1808.52,1320.33 1799.15,1310.96 1799.15,1299.39L1799.15,1293.61C1799.15,1282.05 1808.52,1272.68 1820.09,1272.68L1835.91,1272.68C1847.47,1272.68 1856.84,1282.05 1856.84,1293.61L1856.84,1299.39C1856.84,1310.96 1847.47,1320.33 1835.91,1320.33Z" style="fill:rgb(97,119,127);fill-rule:nonzero;"/>
    </g>
    <g transform="matrix(1,0,0,1,-1451.81,-616.654)">
        <path d="M1810.84,1401.55L1787.46,1401.55C1775.44,1401.55 1765.7,1391.81 1765.7,1379.79L1765.7,1375.66C1765.7,1363.64 1775.44,1353.9 1787.46,1353.9L1810.84,1353.9C1822.86,1353.9 1832.6,1363.64 1832.6,1375.66L1832.6,1379.79C1832.6,1391.81 1822.86,1401.55 1810.84,1401.55Z" style="fill:rgb(255,64,64);fill-rule:nonzero;"/>
    </g>
    <g transform="matrix(1,0,0,1,-1451.81,-616.654)">
        <path d="M1811.67,1401.55L1795.85,1401.55C1784.28,1401.55 1774.91,1392.18 1774.91,1380.62L1774.91,1374.83C1774.91,1363.27 1784.28,1353.9 1795.85,1353.9L1811.67,1353.9C1823.23,1353.9 1832.6,1363.27 1832.6,1374.83L1832.6,1380.62C1832.6,1392.18 1823.23,1401.55 1811.67,1401.55Z" style="fill:rgb(255,106,95);fill-rule:nonzero;"/>
    </g>
    <g transform="matrix(1,0,0,1,-1451.81,-616.654)">
        <path d="M1720.05,1401.55L1696.67,1401.55C1684.65,1401.55 1674.91,1391.81 1674.91,1379.79L1674.91,1375.66C1674.91,1363.64 1684.65,1353.9 1696.67,1353.9L1720.05,1353.9C1732.07,1353.9 1741.81,1363.64 1741.81,1375.66L1741.81,1379.79C1741.81,1391.81 1732.07,1401.55 1720.05,1401.55Z" style="fill:rgb(81,91,94);fill-rule:nonzero;"/>
    </g>
    <g transform="matrix(1,0,0,1,-1451.81,-616.654)">
        <path d="M1720.88,1401.55L1705.05,1401.55C1693.49,1401.55 1684.12,1392.18 1684.12,1380.62L1684.12,1374.83C1684.12,1363.27 1693.49,1353.9 1705.05,1353.9L1720.88,1353.9C1732.44,1353.9 1741.81,1363.27 1741.81,1374.83L1741.81,1380.62C1741.81,1392.18 1732.44,1401.55 1720.88,1401.55Z" style="fill:rgb(97,119,127);fill-rule:nonzero;"/>
    </g>
    <g transform="matrix(1,0,0,1,-1451.81,-616.654)">
        <path d="M1671.48,1552.21L1648.1,1552.21C1636.08,1552.21 1626.34,1542.46 1626.34,1530.45L1626.34,1526.32C1626.34,1514.3 1636.08,1504.56 1648.1,1504.56L1671.48,1504.56C1683.5,1504.56 1693.24,1514.3 1693.24,1526.32L1693.24,1530.45C1693.24,1542.46 1683.5,1552.21 1671.48,1552.21Z" style="fill:rgb(81,91,94);fill-rule:nonzero;"/>
    </g>
    <g transform="matrix(1,0,0,1,-1451.81,-616.654)">
        <path d="M1672.31,1552.21L1656.49,1552.21C1644.92,1552.21 1635.55,1542.83 1635.55,1531.27L1635.55,1525.49C1635.55,1513.93 1644.92,1504.56 1656.49,1504.56L1672.31,1504.56C1683.87,1504.56 1693.24,1513.93 1693.24,1525.49L1693.24,1531.27C1693.24,1542.83 1683.87,1552.21 1672.31,1552.21Z" style="fill:rgb(97,119,127);fill-rule:nonzero;"/>
    </g>
    <g transform="matrix(1,0,0,1,-1451.81,-616.654)">
        <path d="M1749.55,1552.21L1726.17,1552.21C1714.15,1552.21 1704.41,1542.46 1704.41,1530.45L1704.41,1526.32C1704.41,1514.3 1714.15,1504.56 1726.17,1504.56L1749.55,1504.56C1761.57,1504.56 1771.31,1514.3 1771.31,1526.32L1771.31,1530.45C1771.31,1542.46 1761.57,1552.21 1749.55,1552.21Z" style="fill:rgb(81,91,94);fill-rule:nonzero;"/>
    </g>
    <g transform="matrix(1,0,0,1,-1451.81,-616.654)">
        <path d="M1750.38,1552.21L1734.56,1552.21C1722.99,1552.21 1713.62,1542.83 1713.62,1531.27L1713.62,1525.49C1713.62,1513.93 1722.99,1504.56 1734.56,1504.56L1750.38,1504.56C1761.94,1504.56 1771.31,1513.93 1771.31,1525.49L1771.31,1531.27C1771.31,1542.83 1761.94,1552.21 1750.38,1552.21Z" style="fill:rgb(97,119,127);fill-rule:nonzero;"/>
    </g>
    <g transform="matrix(1,0,0,1,-1451.81,-616.654)">
        <path d="M1831.13,1552.21L1807.75,1552.21C1795.73,1552.21 1785.99,1542.46 1785.99,1530.45L1785.99,1526.32C1785.99,1514.3 1795.73,1504.56 1807.75,1504.56L1831.13,1504.56C1843.15,1504.56 1852.89,1514.3 1852.89,1526.32L1852.89,1530.45C1852.89,1542.46 1843.15,1552.21 1831.13,1552.21Z" style="fill:rgb(81,91,94);fill-rule:nonzero;"/>
    </g>
    <g transform="matrix(1,0,0,1,-1451.81,-616.654)">
        <path d="M1831.96,1552.21L1816.14,1552.21C1804.57,1552.21 1795.2,1542.83 1795.2,1531.27L1795.2,1525.49C1795.2,1513.93 1804.57,1504.56 1816.14,1504.56L1831.96,1504.56C1843.52,1504.56 1852.89,1513.93 1852.89,1525.49L1852.89,1531.27C1852.89,1542.83 1843.52,1552.21 1831.96,1552.21Z" style="fill:rgb(97,119,127);fill-rule:nonzero;"/>
    </g>
    <g transform="matrix(1,0,0,1,-1451.81,-616.654)">
        <path d="M1674.06,1616.87L1650.68,1616.87C1638.66,1616.87 1628.92,1607.13 1628.92,1595.11L1628.92,1590.98C1628.92,1578.96 1638.66,1569.22 1650.68,1569.22L1674.06,1569.22C1686.08,1569.22 1695.82,1578.96 1695.82,1590.98L1695.82,1595.11C1695.82,1607.13 1686.08,1616.87 1674.06,1616.87Z" style="fill:rgb(81,91,94);fill-rule:nonzero;"/>
    </g>
    <g transform="matrix(1,0,0,1,-1451.81,-616.654)">
        <path d="M1674.89,1616.87L1659.07,1616.87C1647.51,1616.87 1638.13,1607.5 1638.13,1595.94L1638.13,1590.16C1638.13,1578.59 1647.51,1569.22 1659.07,1569.22L1674.89,1569.22C1686.45,1569.22 1695.82,1578.59 1695.82,1590.16L1695.82,1595.94C1695.82,1607.5 1686.45,1616.87 1674.89,1616.87Z" style="fill:rgb(97,119,127);fill-rule:nonzero;"/>
    </g>
    <g transform="matrix(1,0,0,1,-1451.81,-616.654)">
        <path d="M1752.13,1616.87L1728.75,1616.87C1716.73,1616.87 1706.99,1607.13 1706.99,1595.11L1706.99,1590.98C1706.99,1578.96 1716.73,1569.22 1728.75,1569.22L1752.13,1569.22C1764.15,1569.22 1773.89,1578.96 1773.89,1590.98L1773.89,1595.11C1773.89,1607.13 1764.15,1616.87 1752.13,1616.87Z" style="fill:rgb(81,91,94);fill-rule:nonzero;"/>
    </g>
    <g transform="matrix(1,0,0,1,-1451.81,-616.654)">
        <path d="M1752.96,1616.87L1737.14,1616.87C1725.57,1616.87 1716.2,1607.5 1716.2,1595.94L1716.2,1590.16C1716.2,1578.59 1725.57,1569.22 1737.14,1569.22L1752.96,1569.22C1764.52,1569.22 1773.89,1578.59 1773.89,1590.16L1773.89,1595.94C1773.89,1607.5 1764.52,1616.87 1752.96,1616.87Z" style="fill:rgb(97,119,127);fill-rule:nonzero;"/>
    </g>
    <g transform="matrix(1,0,0,1,-1451.81,-616.654)">
        <path d="M1833.71,1616.87L1810.33,1616.87C1798.31,1616.87 1788.57,1607.13 1788.57,1595.11L1788.57,1590.98C1788.57,1578.96 1798.31,1569.22 1810.33,1569.22L1833.71,1569.22C1845.73,1569.22 1855.47,1578.96 1855.47,1590.98L1855.47,1595.11C1855.47,1607.13 1845.73,1616.87 1833.71,1616.87Z" style="fill:rgb(81,91,94);fill-rule:nonzero;"/>
    </g>
    <g transform="matrix(1,0,0,1,-1451.81,-616.654)">
        <path d="M1834.54,1616.87L1818.72,1616.87C1807.15,1616.87 1797.78,1607.5 1797.78,1595.94L1797.78,1590.16C1797.78,1578.59 1807.15,1569.22 1818.72,1569.22L1834.54,1569.22C1846.1,1569.22 1855.47,1578.59 1855.47,1590.16L1855.47,1595.94C1855.47,1607.5 1846.1,1616.87 1834.54,1616.87Z" style="fill:rgb(97,119,127);fill-rule:nonzero;"/>
    </g>
    <g transform="matrix(1,0,0,1,-1451.81,-616.654)">
        <path d="M1755.61,1013.14C1752.54,1016.21 1747.56,1016.21 1744.49,1013.14L1702.12,970.761C1699.05,967.691 1699.05,962.715 1702.12,959.646C1705.19,956.576 1710.16,956.576 1713.23,959.646L1755.61,1002.02C1758.68,1005.09 1758.68,1010.07 1755.61,1013.14Z" style="fill:rgb(34,35,35);fill-rule:nonzero;"/>
    </g>
    <g transform="matrix(1,0,0,1,-1451.81,-616.654)">
        <path d="M1749.04,1708.35C1745.97,1711.42 1740.99,1711.42 1737.92,1708.35L1695.55,1665.98C1692.48,1662.91 1692.48,1657.93 1695.55,1654.86C1698.61,1651.79 1703.59,1651.79 1706.66,1654.86L1749.04,1697.24C1752.11,1700.31 1752.11,1705.28 1749.04,1708.35Z" style="fill:rgb(34,35,35);fill-rule:nonzero;"/>
    </g>
    <g transform="matrix(1,0,0,1,-1451.81,-616.654)">
        <path d="M1781.31,1708.35C1778.24,1711.42 1773.26,1711.42 1770.19,1708.35L1727.82,1665.98C1724.75,1662.91 1724.75,1657.93 1727.82,1654.86C1730.89,1651.79 1735.86,1651.79 1738.93,1654.86L1781.31,1697.24C1784.38,1700.31 1784.38,1705.28 1781.31,1708.35Z" style="fill:rgb(34,35,35);fill-rule:nonzero;"/>
    </g>
    <g transform="matrix(1,0,0,1,-1451.81,-616.654)">
        <path d="M1815.87,1708.35C1812.8,1711.42 1807.82,1711.42 1804.75,1708.35L1762.37,1665.98C1759.31,1662.91 1759.31,1657.93 1762.37,1654.86C1765.44,1651.79 1770.42,1651.79 1773.49,1654.86L1815.87,1697.24C1818.94,1700.31 1818.94,1705.28 1815.87,1708.35Z" style="fill:rgb(34,35,35);fill-rule:nonzero;"/>
    </g>
    <g transform="matrix(1,0,0,1,-1451.81,-616.654)">
        <path d="M1774.68,994.062C1771.62,997.131 1766.64,997.131 1763.57,994.062L1721.19,951.685C1718.12,948.616 1718.12,943.639 1721.19,940.57C1724.26,937.5 1729.24,937.5 1732.31,940.57L1774.68,982.946C1777.75,986.016 1777.75,990.992 1774.68,994.062Z" style="fill:rgb(34,35,35);fill-rule:nonzero;"/>
    </g>
    <g transform="matrix(1,0,0,1,-1451.81,-616.654)">
        <path d="M1792.37,976.377C1789.3,979.447 1784.32,979.447 1781.25,976.377L1738.88,934.001C1735.81,930.932 1735.81,925.955 1738.88,922.886C1741.95,919.816 1746.92,919.816 1749.99,922.886L1792.37,965.262C1795.44,968.332 1795.44,973.308 1792.37,976.377Z" style="fill:rgb(34,35,35);fill-rule:nonzero;"/>
    </g>
    <g transform="matrix(1,0,0,1,-1451.81,-616.654)">
        <path d="M1857.51,950.629C1856.7,950.629 1855.9,950.467 1855.14,950.109C1852.53,948.871 1851.35,945.825 1850.78,942.992C1849.15,934.87 1850.53,925.956 1846.6,918.667C1843.33,912.607 1836.96,908.878 1830.56,906.336C1821.62,902.784 1812,900.968 1802.39,900.968C1798.97,900.968 1795.55,901.197 1792.16,901.66C1788.08,902.217 1784,903.11 1779.89,903.109C1779.53,903.109 1779.16,903.103 1778.8,903.088C1765.42,902.544 1760.68,890.968 1774.71,887.208C1781.44,885.405 1788.97,884.893 1796.57,884.893C1804.97,884.893 1813.47,885.519 1821.08,885.722C1828.21,885.913 1835.48,886.3 1842.13,888.876C1851.43,892.481 1858.81,900.269 1862.89,909.375C1866.97,918.482 1867.91,928.802 1866.6,938.694C1866.19,941.826 1865.5,945.064 1863.54,947.539C1862.09,949.361 1859.77,950.629 1857.51,950.629Z" style="fill:rgb(97,97,97);fill-rule:nonzero;"/>
    </g>
    <g transform="matrix(1,0,0,1,-1451.81,-616.654)">
        <path d="M1861.16,1028.09C1859.51,1028.09 1857.91,1027.62 1856.55,1026.55C1852.18,1023.13 1852.95,1016.51 1852.98,1010.97C1853.02,1000.84 1849.16,991.024 1848.99,980.9C1848.92,976.953 1849.51,972.775 1851.96,969.681C1853.73,967.448 1857.13,966.371 1860.65,966.371C1864.97,966.371 1869.47,968.008 1871.29,971.133C1872.92,973.925 1873.01,977.315 1873.07,980.545C1873.22,989.119 1873.37,997.694 1873.52,1006.27C1873.62,1011.83 1873.63,1017.73 1870.74,1022.49C1868.75,1025.77 1864.84,1028.09 1861.16,1028.09Z" style="fill:rgb(97,97,97);fill-rule:nonzero;"/>
    </g>
    <g transform="matrix(1,0,0,1,-1451.81,-616.654)">
        <path d="M1829.19,1108.76L1829.16,1108.76L1829.19,1108.76ZM1829.1,1108.76L1828.99,1108.76L1829.1,1108.76Z" style="fill:rgb(96,97,97);fill-rule:nonzero;"/>
    </g>
    <g transform="matrix(1,0,0,1,-1451.81,-616.654)">
        <path d="M1763.99,1217.56L1717.62,1217.56C1747.91,1181.81 1783.01,1141.74 1815.19,1108.76L1829.19,1108.76C1831.18,1108.77 1833.12,1108.96 1835.01,1109.29C1812.38,1142.92 1786.82,1183.12 1763.99,1217.56Z" style="fill:rgb(116,161,172);fill-rule:nonzero;"/>
    </g>
    <g transform="matrix(1,0,0,1,-1451.81,-616.654)">
        <path d="M1756.73,1228.44L1708.44,1228.44C1711.45,1224.87 1714.51,1221.24 1717.62,1217.56L1763.99,1217.56C1761.53,1221.26 1759.12,1224.89 1756.73,1228.44Z" style="fill:rgb(108,149,155);fill-rule:nonzero;"/>
    </g>
    <g transform="matrix(1,0,0,1,-1451.81,-616.654)">
        <path d="M1693.65,1228.44L1669.2,1228.44L1693.65,1228.44ZM1669.16,1228.44L1669.15,1228.44L1669.16,1228.44ZM1669.09,1228.44L1669.08,1228.44L1669.09,1228.44ZM1668.98,1228.44L1668.97,1228.44L1668.98,1228.44Z" style="fill:rgb(96,97,97);fill-rule:nonzero;"/>
    </g>
    <g transform="matrix(1,0,0,1,-1451.81,-616.654)">
        <path d="M1669.32,1228.44L1669.2,1228.44L1669.32,1228.44ZM1669.16,1228.44L1669.08,1228.44L1669.16,1228.44ZM1669.03,1228.44L1668.97,1228.44L1669.03,1228.44ZM1668.92,1228.44L1668.85,1228.44L1668.92,1228.44ZM1668.8,1228.44L1668.73,1228.44L1668.8,1228.44ZM1668.68,1228.44L1668.61,1228.44L1668.68,1228.44ZM1668.56,1228.43L1668.5,1228.43L1668.56,1228.43ZM1668.45,1228.43L1668.38,1228.43L1668.45,1228.43ZM1668.33,1228.43L1668.26,1228.43L1668.33,1228.43ZM1668.21,1228.43C1668.19,1228.42 1668.16,1228.42 1668.14,1228.42C1668.16,1228.42 1668.19,1228.43 1668.21,1228.43ZM1668.09,1228.42L1668.01,1228.42L1668.09,1228.42ZM1667.98,1228.42C1667.95,1228.42 1667.92,1228.42 1667.89,1228.41C1667.92,1228.42 1667.95,1228.42 1667.98,1228.42ZM1667.86,1228.41C1667.7,1228.41 1667.54,1228.4 1667.39,1228.39C1667.55,1228.4 1667.7,1228.41 1667.86,1228.41ZM1667.38,1228.39C1667.34,1228.39 1667.31,1228.39 1667.27,1228.38C1667.31,1228.39 1667.34,1228.39 1667.38,1228.39ZM1667.26,1228.38L1667.15,1228.38L1667.26,1228.38ZM1667.13,1228.38C1667.1,1228.37 1667.06,1228.37 1667.03,1228.37C1667.06,1228.37 1667.1,1228.37 1667.13,1228.38ZM1667.02,1228.37C1666.99,1228.37 1666.95,1228.36 1666.91,1228.36C1666.95,1228.36 1666.99,1228.37 1667.02,1228.37ZM1666.9,1228.36C1666.86,1228.36 1666.83,1228.36 1666.79,1228.35C1666.83,1228.36 1666.86,1228.36 1666.9,1228.36ZM1666.78,1228.35C1666.75,1228.35 1666.71,1228.35 1666.67,1228.34C1666.71,1228.35 1666.75,1228.35 1666.78,1228.35ZM1666.67,1228.34C1658.02,1227.7 1650.24,1223.91 1644.48,1218.13L1644.48,1218.12C1650.25,1223.91 1658.02,1227.7 1666.67,1228.34ZM1699.84,1217.56L1646.93,1217.56C1646.66,1217.56 1646.03,1217.44 1645.22,1217.26C1674.08,1183.45 1711.02,1142.1 1742.42,1108.76L1767.62,1108.76C1746.4,1142.47 1720.01,1182.71 1699.84,1217.56Z" style="fill:rgb(116,161,172);fill-rule:nonzero;"/>
    </g>
    <g transform="matrix(1,0,0,1,-1451.81,-616.654)">
        <path d="M1693.65,1228.44L1668.61,1228.44C1668.6,1228.44 1668.58,1228.44 1668.56,1228.43L1668.21,1228.43C1668.19,1228.43 1668.16,1228.42 1668.14,1228.42L1667.98,1228.42C1667.95,1228.42 1667.92,1228.42 1667.89,1228.41L1667.86,1228.41C1667.7,1228.41 1667.55,1228.4 1667.39,1228.39L1667.38,1228.39C1667.34,1228.39 1667.31,1228.39 1667.27,1228.38L1667.13,1228.38C1667.1,1228.37 1667.06,1228.37 1667.03,1228.37L1667.02,1228.37C1666.99,1228.37 1666.95,1228.36 1666.91,1228.36L1666.9,1228.36C1666.86,1228.36 1666.83,1228.36 1666.79,1228.35L1666.78,1228.35C1666.75,1228.35 1666.71,1228.35 1666.67,1228.34C1658.02,1227.7 1650.25,1223.91 1644.48,1218.12C1644.73,1217.84 1644.97,1217.54 1645.22,1217.26C1646.03,1217.44 1646.66,1217.56 1646.93,1217.56L1699.84,1217.56C1697.7,1221.26 1695.64,1224.89 1693.65,1228.44Z" style="fill:rgb(108,149,155);fill-rule:nonzero;"/>
    </g>
    <g transform="matrix(1,0,0,1,-2632.81,-623.654)">
        <path d="M3860.22,1732.95L3513.19,1732.95C3498.77,1732.95 3487.08,1721.26 3487.08,1706.84L3487.08,955.803C3487.08,941.384 3498.77,929.694 3513.19,929.694L3860.22,929.694C3874.64,929.694 3886.33,941.384 3886.33,955.803L3886.33,1706.84C3886.33,1721.26 3874.64,1732.95 3860.22,1732.95Z" style="fill:rgb(34,35,35);fill-rule:nonzero;"/>
    </g>
    <g transform="matrix(1,0,0,1,-2632.81,-623.654)">
        <path d="M3882.83,1731.96L3535.8,1731.96C3521.38,1731.96 3509.69,1720.27 3509.69,1705.85L3509.69,955.803C3509.69,941.384 3521.38,929.694 3535.8,929.694L3882.83,929.694C3897.25,929.694 3908.94,941.384 3908.94,955.803L3908.94,1705.85C3908.94,1720.27 3897.25,1731.96 3882.83,1731.96Z" style="fill:rgb(57,58,58);fill-rule:nonzero;"/>
    </g>
    <g transform="matrix(1,0,0,1,-2632.81,-623.654)">
        <path d="M3879.67,1715.56L3536.34,1715.56C3527.52,1715.56 3520.36,1708.4 3520.36,1699.58L3520.36,964.552C3520.36,955.726 3527.52,948.571 3536.34,948.571L3879.67,948.571C3888.5,948.571 3895.65,955.726 3895.65,964.552L3895.65,1699.58C3895.65,1708.4 3888.5,1715.56 3879.67,1715.56Z" style="fill:rgb(104,153,165);fill-rule:nonzero;"/>
    </g>
    <g transform="matrix(1,0,0,1,-2632.81,-623.654)">
        <path d="M3576.01,983.002C3576.01,991.427 3569.55,998.256 3561.58,998.256C3553.6,998.256 3547.14,991.427 3547.14,983.002C3547.14,974.578 3553.6,967.748 3561.58,967.748C3569.55,967.748 3576.01,974.578 3576.01,983.002Z" style="fill:rgb(57,58,58);fill-rule:nonzero;"/>
    </g>
    <g transform="matrix(1,0,0,1,-2632.81,-623.654)">
        <path d="M3891.04,953.325C3888.15,950.39 3884.12,948.571 3879.67,948.571L3880.11,948.571C3884.37,948.571 3888.24,950.386 3891.04,953.325Z" style="fill:rgb(77,78,78);fill-rule:nonzero;"/>
    </g>
    <g transform="matrix(1,0,0,1,-2632.81,-623.654)">
        <path d="M3520.36,1303.74L3520.36,1264.6C3583.06,1156.4 3685,1044.15 3777.67,948.571L3879.67,948.571C3884.12,948.571 3888.15,950.39 3891.04,953.325C3893.89,956.302 3895.65,960.432 3895.65,964.998L3895.65,979.981C3880.2,989.801 3864.96,1000.02 3849.83,1010.31C3728.63,1092.81 3608.71,1184.86 3520.36,1303.74Z" style="fill:rgb(119,163,174);fill-rule:nonzero;"/>
    </g>
    <g transform="matrix(1,0,0,1,-2632.81,-623.654)">
        <path d="M3707.99,1715.56L3684.98,1715.56C3743.04,1594.04 3813.88,1479.35 3895.65,1374.16L3895.65,1525.83C3828.76,1584.09 3764.68,1646.49 3707.99,1715.56Z" style="fill:rgb(119,163,174);fill-rule:nonzero;"/>
    </g>
    <g transform="matrix(1,0,0,1,-2632.81,-623.654)">
        <path d="M3520.36,1630.98L3520.36,1561.84C3590.84,1424.81 3679.15,1297.5 3773.72,1177.33C3812.64,1127.88 3852.87,1079.3 3895.65,1033.57L3895.65,1268.96C3753.67,1367.89 3626.51,1490.57 3520.36,1630.98Z" style="fill:rgb(119,163,174);fill-rule:nonzero;"/>
    </g>
</svg>
